<?xml version="1.0" encoding="utf-8"?>
<!-- Generator: Adobe Illustrator 27.3.1, SVG Export Plug-In . SVG Version: 6.00 Build 0)  -->
<svg version="1.1" id="Layer_2_00000039837103144307116640000012317313025149779078_"
	 xmlns="http://www.w3.org/2000/svg" xmlns:xlink="http://www.w3.org/1999/xlink" x="0px" y="0px" viewBox="0 0 101.1 101"
	 style="enable-background:new 0 0 101.1 101;" xml:space="preserve">
<style type="text/css">
	.st0{fill:#DDDDDD;}
	.st1{fill:#FCA311;}
	.st2{fill:#FFFFFF;}
</style>
<g id="Layer_1-2">
	<g>
		<path class="st0" d="M100.5,50.5c0-14.7,0-29.4,0-44.2c0-3.8-2.1-5.8-5.8-5.8c-29.5,0-59,0-88.6,0c-3.5,0-5.6,2.1-5.6,5.7
			c0,29.5,0,59,0,88.6c0,3.7,2.1,5.7,5.8,5.7c29.5,0,59,0,88.4,0c0.6,0,1.3,0,1.9-0.2c2.5-0.6,3.9-2.7,3.9-5.6
			C100.5,80,100.5,65.2,100.5,50.5L100.5,50.5z"/>
		<path class="st1" d="M100.5,50.5c0,14.7,0,29.4,0,44.2c0,3-1.4,5-3.9,5.6c-0.6,0.2-1.2,0.2-1.9,0.2c-29.5,0-59,0-88.4,0
			c-3.7,0-5.8-2.1-5.8-5.8c0-29.5,0-59,0-88.5c0-3.6,2.1-5.7,5.7-5.7c29.5,0,59,0,88.6,0c3.7,0,5.8,2.1,5.8,5.8
			C100.5,21.1,100.5,35.8,100.5,50.5L100.5,50.5z M57.2,73.8c0-6.1,0-12.2,0-18.3c0-0.9,0.2-1.2,1.1-1.2c3.6,0,7.2,0,10.8,0
			c0.8,0,1.2-0.3,1.3-1.1c0.5-4.4,1.1-8.8,1.7-13.1c0.1-0.9-0.2-1.3-1.1-1.3c-4.2,0-8.5,0-12.7,0c-0.6,0-1.1,0-1.1-0.8
			c0-3.3-0.1-6.5,0.1-9.8c0.1-2,0.5-4.2,2.7-5.1c1.5-0.6,3.2-0.8,4.8-0.9c2.3-0.1,4.6,0,6.9,0c0.7,0,1.1-0.1,1.1-1c0-4,0-8,0-12
			c0-0.6-0.2-0.9-0.8-0.9c-4.5-0.1-9.1-0.5-13.6-0.4c-4.6,0.2-8.8,1.9-12,5.4c-3.5,3.8-4.9,8.3-5.1,13.3c-0.1,3.7,0,7.4,0,11
			c0,0.9-0.2,1.2-1.2,1.2c-3.6,0-7.2,0-10.8,0c-0.9,0-1.2,0.3-1.2,1.2c0,4.4,0,8.8,0,13.2c0,0.9,0.3,1.2,1.2,1.2c3.5,0,7,0,10.5,0
			c1,0,1.4,0.5,1.4,1.5c0,12,0,24,0,36c0,1.1,0.3,1.5,1.5,1.5c4.3-0.1,8.7-0.1,13,0c1.1,0,1.5-0.3,1.5-1.5
			C57.2,85.9,57.3,79.8,57.2,73.8L57.2,73.8z"/>
		<path class="st2" d="M57.2,73.8c0,6,0,12,0,18.1c0,1.1-0.3,1.5-1.5,1.5c-4.3-0.1-8.7-0.1-13,0c-1.1,0-1.5-0.3-1.5-1.5
			c0-12,0-24,0-36c0-1-0.5-1.5-1.4-1.5c-3.5,0-7,0-10.5,0c-0.9,0-1.2-0.3-1.2-1.2c0-4.4,0-8.8,0-13.2c0-0.9,0.3-1.2,1.2-1.2
			c3.6,0,7.2,0,10.8,0c0.9,0,1.2-0.3,1.2-1.2c0-3.7-0.1-7.4,0-11c0.1-5,1.5-9.6,5.1-13.3c3.2-3.5,7.4-5.2,12-5.4
			c4.5-0.2,9.1,0.2,13.6,0.4c0.6,0,0.8,0.3,0.8,0.9c0,4,0,8,0,12c0,0.8-0.4,1-1.1,1c-2.3,0-4.6-0.1-6.9,0c-1.6,0.1-3.3,0.4-4.8,0.9
			c-2.2,0.9-2.6,3-2.7,5.1c-0.2,3.3,0,6.5-0.1,9.8c0,0.9,0.5,0.8,1.1,0.8c4.2,0,8.5,0,12.7,0c1,0,1.2,0.3,1.1,1.3
			c-0.6,4.4-1.2,8.8-1.7,13.1c-0.1,0.8-0.4,1.1-1.3,1.1c-3.6,0-7.2,0-10.8,0c-0.9,0-1.1,0.3-1.1,1.2C57.2,61.6,57.2,67.7,57.2,73.8
			L57.2,73.8z"/>
	</g>
</g>
</svg>
