<?xml version="1.0" encoding="UTF-8"?>
<svg xmlns="http://www.w3.org/2000/svg" viewBox="0 0 216.3 117.3">
  <defs>
    <style>
      .cls-1 {
        fill: #faa31b;
      }
    </style>
  </defs>
  <g id="keg">
    <g>
      <g>
        <path class="cls-1" d="m43.8,97.6c-10.9,0-21.4-1.6-30.8-4.6,2.6,5.6,5.9,11.2,9.8,16.9.8,1.2,2.2,2,3.8,2.2,12.4,1.5,23.6,1.3,34,0,1.6-.2,2.9-1,3.8-2.2,3.9-5.6,7.1-11.2,9.8-16.8-9.3,2.9-19.6,4.5-30.4,4.5Z"/>
        <path class="cls-1" d="m43.8,19.2c10.6,0,20.8,1.5,30,4.3-2.6-5.3-5.7-10.7-9.4-16-.8-1.1-2.1-1.9-3.6-2.2-11.4-1.8-22.8-1.8-34.3,0-1.5.2-2.8,1-3.6,2.2-3.8,5.4-6.9,10.8-9.5,16.1,9.3-2.9,19.6-4.4,30.4-4.4Z"/>
      </g>
      <g>
        <path class="cls-1" d="m43.8,35.6c13,0,25.4,1.4,35.9,3.9-.9-3.3-2-6.7-3.3-10-9.3-3.5-20.6-5.5-32.6-5.5s-23.6,2.1-33.1,5.7c-1.3,3.3-2.4,6.6-3.3,10,10.7-2.7,23.2-4.1,36.4-4.1Z"/>
        <path class="cls-1" d="m80.7,73.8c2.1-10.3,2.1-20.7-.2-31-10.1-2.8-22.8-4.4-36.7-4.4s-27,1.7-37.1,4.5c-2.2,10.3-2.3,20.6-.2,30.8,10.1,2.8,23.1,4.6,37.3,4.6s26.8-1.7,36.9-4.5Z"/>
        <path class="cls-1" d="m43.8,81.1c-13.3,0-25.9-1.4-36.5-4.1.8,3.3,1.9,6.6,3.1,9.9,9.6,3.7,21,5.8,33.4,5.8s23.5-2.1,33-5.7c1.3-3.3,2.3-6.6,3.2-9.9-10.6,2.6-23.1,4-36.2,4Z"/>
      </g>
    </g>
  </g>
  <g id="text">
    <g>
      <g>
        <path class="cls-1" d="m91.44,21.47h19.88c3.31,0,5.86.82,7.63,2.46s2.66,3.67,2.66,6.09c0,2.03-.63,3.77-1.9,5.23-.84.97-2.08,1.73-3.7,2.3,2.47.59,4.29,1.61,5.45,3.06s1.75,3.26,1.75,5.45c0,1.78-.41,3.38-1.24,4.8s-1.96,2.55-3.4,3.38c-.89.52-2.23.89-4.03,1.12-2.39.31-3.98.47-4.76.47h-18.33V21.47Zm10.71,13.48h4.62c1.66,0,2.81-.29,3.46-.86s.97-1.39.97-2.47c0-1-.32-1.78-.97-2.34s-1.78-.84-3.39-.84h-4.69v6.52Zm0,13.5h5.41c1.83,0,3.12-.32,3.87-.97s1.12-1.52,1.12-2.61c0-1.02-.37-1.83-1.11-2.45-.74-.62-2.04-.93-3.9-.93h-5.39v6.96Z"/>
        <path class="cls-1" d="m127.56,21.47h9.54v6.49h-9.54v-6.49Zm0,9.47h9.54v24.89h-9.54v-24.89Z"/>
        <path class="cls-1" d="m142.61,21.47h9.56v34.36h-9.56V21.47Z"/>
        <path class="cls-1" d="m157.68,21.47h9.56v34.36h-9.56V21.47Z"/>
        <path class="cls-1" d="m170.5,30.94h10.07l5.13,16.57,4.77-16.57h9.4l-9.88,26.6c-1.12,3.03-2.27,5.08-3.44,6.15-1.66,1.5-4.18,2.25-7.57,2.25-1.38,0-3.5-.19-6.37-.56l-.75-6.66c1.37.44,2.9.66,4.59.66,1.12,0,2.03-.26,2.73-.77.69-.52,1.28-1.44,1.77-2.77l-10.45-24.89Z"/>
      </g>
      <g>
        <path class="cls-1" d="m91.44,62.47h19.88c3.31,0,5.86.82,7.63,2.46s2.66,3.67,2.66,6.09c0,2.03-.63,3.77-1.9,5.23-.84.97-2.08,1.73-3.7,2.3,2.47.59,4.29,1.61,5.45,3.06s1.75,3.26,1.75,5.45c0,1.78-.41,3.38-1.24,4.8s-1.96,2.55-3.4,3.38c-.89.52-2.23.89-4.03,1.12-2.39.31-3.98.47-4.76.47h-18.33v-34.36Zm10.71,13.48h4.62c1.66,0,2.81-.29,3.46-.86s.97-1.39.97-2.47c0-1-.32-1.78-.97-2.34s-1.78-.84-3.39-.84h-4.69v6.52Zm0,13.5h5.41c1.83,0,3.12-.32,3.87-.97s1.12-1.52,1.12-2.61c0-1.02-.37-1.83-1.11-2.45-.74-.62-2.04-.93-3.9-.93h-5.39v6.96Z"/>
        <path class="cls-1" d="m154.84,86.75h-19.12c.17,1.53.59,2.67,1.24,3.42.92,1.08,2.12,1.62,3.61,1.62.94,0,1.83-.23,2.67-.7.52-.3,1.07-.82,1.66-1.57l9.4.87c-1.44,2.5-3.17,4.29-5.2,5.38s-4.95,1.63-8.74,1.63c-3.3,0-5.89-.46-7.78-1.39s-3.46-2.41-4.7-4.43-1.86-4.4-1.86-7.14c0-3.89,1.25-7.04,3.74-9.45s5.93-3.61,10.32-3.61c3.56,0,6.38.54,8.44,1.62s3.63,2.64,4.71,4.69,1.62,4.71,1.62,7.99v1.08Zm-9.7-4.57c-.19-1.84-.68-3.16-1.49-3.96s-1.86-1.2-3.18-1.2c-1.52,0-2.73.6-3.63,1.8-.58.75-.95,1.87-1.1,3.35h9.4Z"/>
        <path class="cls-1" d="m185.95,86.75h-19.12c.17,1.53.59,2.67,1.24,3.42.92,1.08,2.12,1.62,3.61,1.62.94,0,1.83-.23,2.67-.7.52-.3,1.07-.82,1.66-1.57l9.4.87c-1.44,2.5-3.17,4.29-5.2,5.38s-4.95,1.63-8.74,1.63c-3.3,0-5.89-.46-7.78-1.39s-3.46-2.41-4.7-4.43-1.86-4.4-1.86-7.14c0-3.89,1.25-7.04,3.74-9.45s5.93-3.61,10.32-3.61c3.56,0,6.38.54,8.44,1.62s3.63,2.64,4.71,4.69,1.62,4.71,1.62,7.99v1.08Zm-9.7-4.57c-.19-1.84-.68-3.16-1.49-3.96s-1.86-1.2-3.18-1.2c-1.52,0-2.73.6-3.63,1.8-.58.75-.95,1.87-1.1,3.35h9.4Z"/>
        <path class="cls-1" d="m189.51,71.94h8.93v4.08c.86-1.77,1.75-2.98,2.66-3.64s2.04-1,3.39-1,2.95.44,4.62,1.31l-2.95,6.8c-1.12-.47-2.02-.7-2.67-.7-1.25,0-2.22.52-2.91,1.55-.98,1.45-1.48,4.17-1.48,8.16v8.34h-9.59v-24.89Z"/>
      </g>
    </g>
  </g>
</svg>