<?xml version="1.0" encoding="utf-8"?>
<!-- Generator: Adobe Illustrator 27.2.0, SVG Export Plug-In . SVG Version: 6.00 Build 0)  -->
<svg version="1.1" id="Layer_2_00000147203784033175952040000009611404580186124735_"
	 xmlns="http://www.w3.org/2000/svg" xmlns:xlink="http://www.w3.org/1999/xlink" x="0px" y="0px" viewBox="0 0 100 100"
	 style="enable-background:new 0 0 100 100;" xml:space="preserve">
<style type="text/css">
	.st0{fill:#FCA311;}
</style>
<g id="Layer_1-2">
	<g>
		<path class="st0" d="M50,0C36.4,0,34.7,0.1,29.4,0.3s-9,1.1-12.1,2.3c-3.3,1.3-6.1,3-8.9,5.8S3.9,14,2.6,17.2
			C1.4,20.4,0.5,24,0.3,29.3C0,34.7,0,36.4,0,50s0,15.3,0.3,20.6c0.2,5.3,1.1,9,2.3,12.2c1.3,3.3,3,6.1,5.8,8.9s5.6,4.5,8.9,5.8
			c3.2,1.2,6.8,2.1,12.1,2.3c5.3,0.2,7,0.3,20.6,0.3s15.3-0.1,20.6-0.3s9-1.1,12.2-2.3c3.3-1.3,6.1-3,8.9-5.8s4.5-5.6,5.8-8.9
			c1.2-3.2,2.1-6.8,2.3-12.2c0.2-5.3,0.3-7,0.3-20.6s-0.1-15.3-0.3-20.6s-1.1-9-2.3-12.1c-1.3-3.3-3-6.1-5.8-8.9s-5.6-4.5-8.9-5.8
			C79.6,1.4,76,0.5,70.6,0.3C65.3,0,63.6,0,50,0L50,0z M50,9c13.3,0,14.9,0.1,20.2,0.3c4.9,0.2,7.5,1,9.3,1.7c2.3,0.9,4,2,5.8,3.7
			c1.8,1.8,2.8,3.4,3.7,5.8c0.7,1.8,1.5,4.4,1.7,9.3C91,35.1,91,36.7,91,50s0,15-0.3,20.2c-0.2,4.9-1,7.5-1.7,9.3
			c-0.9,2.3-2,4-3.7,5.8c-1.8,1.8-3.4,2.8-5.8,3.7c-1.8,0.7-4.4,1.5-9.3,1.7C64.9,91,63.3,91,50,91s-14.9,0-20.2-0.2
			c-4.9-0.2-7.5-1-9.3-1.7c-2.3-0.9-4-2-5.8-3.7S11.9,82,11,79.6c-0.7-1.8-1.5-4.4-1.7-9.3C9,65,9,63.4,9,50s0-14.9,0.3-20.2
			c0.2-4.9,1-7.5,1.7-9.3c0.9-2.3,2-4,3.7-5.8c1.8-1.8,3.4-2.8,5.8-3.7c1.8-0.7,4.4-1.5,9.3-1.7C35,9.1,36.6,9,50,9"/>
		<path class="st0" d="M50,66.7c-9.2,0-16.7-7.5-16.7-16.7S40.8,33.4,50,33.4S66.7,40.8,66.7,50S59.2,66.7,50,66.7z M50,24.3
			c-14.2,0-25.7,11.5-25.7,25.7S35.8,75.7,50,75.7S75.7,64.2,75.7,50S64.2,24.3,50,24.3 M82.7,23.3c0,3.3-2.7,6-6,6s-6-2.7-6-6
			s2.7-6,6-6S82.7,20,82.7,23.3"/>
	</g>
</g>
</svg>
