<?xml version="1.0" encoding="utf-8"?>
<!-- Generator: Adobe Illustrator 27.2.0, SVG Export Plug-In . SVG Version: 6.00 Build 0)  -->
<svg version="1.1" id="Layer_2_00000012459341833887858710000006492917647767266725_"
	 xmlns="http://www.w3.org/2000/svg" xmlns:xlink="http://www.w3.org/1999/xlink" x="0px" y="0px" viewBox="0 0 100 100"
	 style="enable-background:new 0 0 100 100;" xml:space="preserve">
<style type="text/css">
	.st0{fill:#DDDDDD;}
	.st1{fill:#FC8300;}
	.st2{fill:#FFFFFF;}
</style>
<g id="Layer_1-2">
	<g>
		<path class="st0" d="M99.9,50c0-13.4-0.1-26.8,0.1-40.2c0.1-5.6-4.5-9.9-9.9-9.9C63.4,0.1,36.7,0,9.9,0C4,0,0,4.1,0,10
			c0,26.7,0,53.3,0,80c0,5.8,4,10,9.8,10c26.8,0,53.6,0,80.4,0c5.9,0,9.8-4.8,9.8-9.8C99.8,76.8,99.9,63.4,99.9,50L99.9,50z"/>
		<path class="st1" d="M99.9,50c0,13.4-0.1,26.8,0.1,40.2c0.1,5-3.9,9.8-9.8,9.8c-26.8,0-53.6,0-80.4,0C4,100,0,95.8,0,90
			c0-26.7,0-53.3,0-80C0,4.1,4,0,9.9,0C36.6,0,63.3,0,90,0c5.4,0,10,4.3,9.9,9.9C99.8,23.3,99.9,36.7,99.9,50L99.9,50z M10.1,39.7
			c0,4.1,1.3,7.7,3.8,10.9s5.8,5.2,9.8,6.3c0,0.1,0,0.3-0.1,0.4h-7.3c3,7.7,8.4,11.6,16.5,12.5C25,75.7,16.6,78,7.2,77.4
			c0.5,0.4,0.9,0.7,1.4,1c9.8,5.6,20.3,7.7,31.5,6.4c13.7-1.5,24.9-7.6,33.4-18.4c7.4-9.4,11.2-20.1,11.1-32.2
			c0-1.3,0.4-2.2,1.4-3.1c2.3-2,4.3-4.3,6.4-6.5c0.3-0.3,0.5-0.8,0.8-1.2c-3.2,0.9-6.1,1.7-8.6,2.3c1.1-1.3,2.3-2.7,3.6-4.2
			c1.2-1.5,2.2-3.2,2.8-5.1c-2.8,1.1-5.4,2.1-8,3.1c-2,0.8-3.8,0.9-5.2-1.1c-0.1-0.1-0.3-0.2-0.4-0.3c-6-4.1-12.3-4.7-18.8-1.4
			c-6.6,3.4-9.7,9.1-9.7,16.5c0,1,0,2.1,0,3.2c-1.1,0-2.3,0-3.4-0.2C33.2,34.4,22.8,29,14.4,19.8c-0.5-0.6-1-1.2-1.6-1.9
			c-1.9,2.9-2.6,5.9-2.6,8.9c0.1,6,2.5,10.9,7.4,14.6c-0.1,0.2-0.2,0.3-0.3,0.5C15,41.1,12.6,40.5,10.1,39.7L10.1,39.7z"/>
		<path class="st2" d="M10.1,39.7c2.5,0.7,4.9,1.4,7.2,2c0.1-0.2,0.2-0.3,0.3-0.5c-4.8-3.7-7.3-8.6-7.4-14.6c0-3,0.6-5.9,2.6-8.9
			c0.6,0.7,1.1,1.3,1.6,1.9c8.4,9.2,18.8,14.6,31.2,16.3c1.1,0.2,2.3,0.1,3.4,0.2c0-1,0-2.1,0-3.2c-0.1-7.4,3.1-13.1,9.7-16.5
			c6.4-3.3,12.8-2.7,18.8,1.4c0.2,0.1,0.3,0.2,0.4,0.3c1.4,1.9,3.2,1.9,5.2,1.1c2.6-1.1,5.2-2.1,8-3.1c-0.6,1.9-1.6,3.6-2.8,5.1
			c-1.2,1.5-2.5,3-3.6,4.2c2.5-0.7,5.4-1.5,8.6-2.3c-0.3,0.5-0.5,0.9-0.8,1.2c-2.1,2.2-4.1,4.5-6.4,6.5c-1,0.9-1.4,1.8-1.4,3.1
			c0.1,12-3.8,22.7-11.1,32.1C65,77.2,53.8,83.2,40.1,84.8C28.9,86,18.4,83.9,8.6,78.3c-0.5-0.3-1-0.6-1.4-1
			c9.4,0.6,17.9-1.6,25.7-7.5C24.7,69,19.3,65,16.3,57.4h7.3c0-0.1,0-0.3,0.1-0.4c-3.9-1.1-7.3-3.1-9.8-6.3
			C11.4,47.4,10.1,43.8,10.1,39.7L10.1,39.7z"/>
	</g>
</g>
</svg>
